%TF.GenerationSoftware,Altium Limited,Altium Designer,21.4.1 (30)*%
G04 Layer_Color=255*
%FSLAX45Y45*%
%MOMM*%
%TF.SameCoordinates,B516314B-6D7E-4A12-AF4E-A3036E98B02D*%
%TF.FilePolarity,Positive*%
%TF.FileFunction,Pads,Bot*%
%TF.Part,Single*%
G01*
G75*
%TA.AperFunction,ComponentPad*%
%ADD15R,1.60000X0.90000*%
%ADD16O,1.60000X0.90000*%
%ADD17R,1.60000X1.60000*%
%ADD18C,1.60000*%
%ADD19R,2.55000X2.55000*%
%ADD20C,2.55000*%
%ADD21C,5.46000*%
%ADD22C,4.74000*%
%ADD23C,1.30000*%
%ADD24C,1.90000*%
%ADD25R,1.60000X1.60000*%
%ADD26C,1.70000*%
%ADD27C,3.20000*%
%ADD28C,1.80000*%
%ADD29R,1.80000X1.80000*%
%ADD30C,1.40000*%
%ADD31C,1.26900*%
%ADD32R,2.99999X2.99999*%
%ADD33C,2.99999*%
D15*
X10718800Y4899800D02*
D03*
D16*
Y4749800D02*
D03*
Y4599800D02*
D03*
D17*
X6850000Y1900000D02*
D03*
X5550000Y1700000D02*
D03*
X11708000Y4100000D02*
D03*
D18*
X7104000Y1900000D02*
D03*
X7358000D02*
D03*
X7612000D02*
D03*
X7866000D02*
D03*
X8120000D02*
D03*
X4280000Y1700000D02*
D03*
X4534000D02*
D03*
X4788000D02*
D03*
X5042000D02*
D03*
X5296000D02*
D03*
X1227000Y6200000D02*
D03*
X2027000D02*
D03*
X2827000D02*
D03*
X3627000D02*
D03*
X4427000D02*
D03*
X5227000D02*
D03*
X10500000Y3950000D02*
D03*
X11300000Y5150000D02*
D03*
X11750000Y1850000D02*
D03*
X11200000Y4100000D02*
D03*
X3530600Y1422400D02*
D03*
Y1676400D02*
D03*
Y1930400D02*
D03*
Y2184400D02*
D03*
Y2438400D02*
D03*
Y2692400D02*
D03*
Y2946400D02*
D03*
Y3200400D02*
D03*
Y3454400D02*
D03*
Y3708400D02*
D03*
Y3962400D02*
D03*
Y4216400D02*
D03*
Y4470400D02*
D03*
Y4724400D02*
D03*
X990600Y1168400D02*
D03*
Y1422400D02*
D03*
Y1676400D02*
D03*
Y1930400D02*
D03*
Y2184400D02*
D03*
Y2438400D02*
D03*
Y2692400D02*
D03*
Y2946400D02*
D03*
Y3200400D02*
D03*
Y3454400D02*
D03*
Y3708400D02*
D03*
Y3962400D02*
D03*
Y4216400D02*
D03*
Y4470400D02*
D03*
Y4724400D02*
D03*
D19*
X10412700Y711200D02*
D03*
X9000000Y700000D02*
D03*
X6584000D02*
D03*
X4176000D02*
D03*
D20*
X10920700Y711200D02*
D03*
X9508000Y700000D02*
D03*
X7092000D02*
D03*
X7600000D02*
D03*
X8108000D02*
D03*
X4684000D02*
D03*
X5192000D02*
D03*
X5700000D02*
D03*
D21*
X11900000Y1000000D02*
D03*
D22*
X12370000Y700000D02*
D03*
X11900000Y400000D02*
D03*
D23*
X10300000Y3120000D02*
D03*
X9100000D02*
D03*
X10300000Y1900000D02*
D03*
X9100000D02*
D03*
D24*
X9700000Y3320000D02*
D03*
D25*
X973000Y6200000D02*
D03*
X1773000D02*
D03*
X2573000D02*
D03*
X3373000D02*
D03*
X4173000D02*
D03*
X4973000D02*
D03*
X9090000Y3950000D02*
D03*
X11650000Y5150000D02*
D03*
X11250000Y1850000D02*
D03*
X3530600Y1168400D02*
D03*
D26*
X10200000Y5650000D02*
D03*
X9180000D02*
D03*
Y5140000D02*
D03*
X10200000D02*
D03*
X9180000Y4640000D02*
D03*
X10200000D02*
D03*
Y6160000D02*
D03*
X9180000D02*
D03*
X12875000Y4815000D02*
D03*
Y5835000D02*
D03*
D27*
X13000000Y6600000D02*
D03*
X400000Y400000D02*
D03*
X13000000D02*
D03*
X400000Y6600000D02*
D03*
D28*
X10925000Y6525000D02*
D03*
Y6025000D02*
D03*
X12175000Y6525000D02*
D03*
D29*
Y6025000D02*
D03*
D30*
X12250000Y5400000D02*
D03*
Y4892000D02*
D03*
X12400000Y1650000D02*
D03*
Y2158000D02*
D03*
D31*
X12375000Y4479000D02*
D03*
Y4225000D02*
D03*
Y3971000D02*
D03*
D32*
X13000000Y2900000D02*
D03*
D33*
Y1100000D02*
D03*
%TF.MD5,619b2900498a69f975af8c0ccfee6de3*%
M02*
