%TF.GenerationSoftware,Altium Limited,Altium Designer,21.4.1 (30)*%
G04 Layer_Physical_Order=1*
G04 Layer_Color=255*
%FSLAX45Y45*%
%MOMM*%
%TF.SameCoordinates,B516314B-6D7E-4A12-AF4E-A3036E98B02D*%
%TF.FilePolarity,Positive*%
%TF.FileFunction,Copper,L1,Top,Signal*%
%TF.Part,Single*%
G01*
G75*
%TA.AperFunction,SMDPad,CuDef*%
%ADD10R,2.50000X1.02000*%
%ADD11R,6.99000X8.33000*%
%TA.AperFunction,Conductor*%
%ADD12C,1.00000*%
%ADD13C,0.50000*%
%ADD14C,0.80000*%
%TA.AperFunction,ComponentPad*%
%ADD15R,1.60000X0.90000*%
%ADD16O,1.60000X0.90000*%
%ADD17R,1.60000X1.60000*%
%ADD18C,1.60000*%
%ADD19R,2.55000X2.55000*%
%ADD20C,2.55000*%
%ADD21C,5.46000*%
%ADD22C,4.74000*%
%ADD23C,1.30000*%
%ADD24C,1.90000*%
%ADD25R,1.60000X1.60000*%
%ADD26C,1.70000*%
%ADD27C,3.20000*%
%ADD28C,1.80000*%
%ADD29R,1.80000X1.80000*%
%ADD30C,1.40000*%
%ADD31C,1.26900*%
%ADD32R,2.99999X2.99999*%
%ADD33C,2.99999*%
%TA.AperFunction,ViaPad*%
%ADD34C,0.60000*%
G36*
X9625000Y5500000D02*
X12375000D01*
Y5300000D01*
X11800000D01*
Y4600000D01*
X12500000D01*
Y4375000D01*
X11350000D01*
Y3950000D01*
X11050000D01*
Y4600000D01*
Y4625000D01*
X11500000D01*
Y5325000D01*
X9625000D01*
Y3850000D01*
X9250000D01*
Y3250000D01*
Y3000000D01*
X8000000D01*
Y1775000D01*
X7750000D01*
Y3250000D01*
X8925000D01*
Y4125000D01*
X9375000D01*
Y6000000D01*
X9050000D01*
Y6350000D01*
X5100000D01*
Y6075000D01*
X4850000D01*
Y6525000D01*
X9625000D01*
Y5500000D01*
D02*
G37*
G36*
X13025000Y4125000D02*
X12776200D01*
Y3048000D01*
X12242800D01*
Y3175000D01*
X12598400D01*
Y3733800D01*
X12268200D01*
Y4125000D01*
Y4325000D01*
X12575000D01*
Y4725000D01*
X12150000D01*
Y5000000D01*
X13025000D01*
Y4125000D01*
D02*
G37*
G36*
X10825000Y3025000D02*
X10134600D01*
Y4150000D01*
X10543540D01*
Y4653280D01*
X10825000D01*
Y3025000D01*
D02*
G37*
G36*
X4648200Y1041400D02*
X3429000D01*
Y1295400D01*
X4419600D01*
Y1828800D01*
X4648200D01*
Y1041400D01*
D02*
G37*
G36*
X9881000Y1473200D02*
X11125000D01*
Y2325000D01*
X12125000D01*
Y2675000D01*
X12525000D01*
Y2050000D01*
X11375000D01*
Y1473200D01*
X12375000D01*
Y957000D01*
X12344688D01*
X12295036Y947124D01*
X12248265Y927751D01*
X12206172Y899625D01*
X12170375Y863828D01*
X12142250Y821735D01*
X12122876Y774964D01*
X12113000Y725312D01*
Y674688D01*
X12122876Y625036D01*
X12142250Y578265D01*
X12170375Y536172D01*
X12186814Y519733D01*
X12181954Y508000D01*
X12133440D01*
X12127751Y521735D01*
X12099625Y563828D01*
X12063828Y599625D01*
X12021735Y627751D01*
X11974964Y647124D01*
X11925312Y657000D01*
X11874688D01*
X11825036Y647124D01*
X11778265Y627751D01*
X11736172Y599625D01*
X11700375Y563828D01*
X11672249Y521735D01*
X11666560Y508000D01*
X7391400D01*
Y1200000D01*
X5410200D01*
Y508000D01*
X4978400D01*
Y1473200D01*
X9500000D01*
Y3450000D01*
X9881000D01*
Y1473200D01*
D02*
G37*
%LPC*%
G36*
X10935228Y858700D02*
X10906172D01*
X10877676Y853032D01*
X10850833Y841913D01*
X10826674Y825771D01*
X10806129Y805226D01*
X10789987Y781067D01*
X10778868Y754224D01*
X10773200Y725728D01*
Y696672D01*
X10778868Y668176D01*
X10789987Y641333D01*
X10806129Y617174D01*
X10826674Y596629D01*
X10850833Y580487D01*
X10877676Y569368D01*
X10906172Y563700D01*
X10935228D01*
X10963724Y569368D01*
X10990567Y580487D01*
X11014726Y596629D01*
X11035271Y617174D01*
X11051413Y641333D01*
X11062532Y668176D01*
X11068200Y696672D01*
Y725728D01*
X11062532Y754224D01*
X11051413Y781067D01*
X11035271Y805226D01*
X11014726Y825771D01*
X10990567Y841913D01*
X10963724Y853032D01*
X10935228Y858700D01*
D02*
G37*
G36*
X9522528Y847500D02*
X9493473D01*
X9464976Y841832D01*
X9438133Y830713D01*
X9413974Y814571D01*
X9393429Y794026D01*
X9377287Y769867D01*
X9366168Y743024D01*
X9360500Y714528D01*
Y685473D01*
X9366168Y656976D01*
X9377287Y630133D01*
X9393429Y605974D01*
X9413974Y585429D01*
X9438133Y569287D01*
X9464976Y558169D01*
X9493473Y552500D01*
X9522528D01*
X9551024Y558169D01*
X9577867Y569287D01*
X9602026Y585429D01*
X9622571Y605974D01*
X9638713Y630133D01*
X9649832Y656976D01*
X9655500Y685473D01*
Y714528D01*
X9649832Y743024D01*
X9638713Y769867D01*
X9622571Y794026D01*
X9602026Y814571D01*
X9577867Y830713D01*
X9551024Y841832D01*
X9522528Y847500D01*
D02*
G37*
G36*
X9147500D02*
X8852500D01*
Y552500D01*
X9147500D01*
Y847500D01*
D02*
G37*
G36*
X8122528D02*
X8093473D01*
X8064976Y841832D01*
X8038133Y830713D01*
X8013974Y814571D01*
X7993429Y794026D01*
X7977287Y769867D01*
X7966168Y743024D01*
X7960500Y714528D01*
Y685473D01*
X7966168Y656976D01*
X7977287Y630133D01*
X7993429Y605974D01*
X8013974Y585429D01*
X8038133Y569287D01*
X8064976Y558169D01*
X8093473Y552500D01*
X8122528D01*
X8151024Y558169D01*
X8177867Y569287D01*
X8202026Y585429D01*
X8222571Y605974D01*
X8238713Y630133D01*
X8249832Y656976D01*
X8255500Y685473D01*
Y714528D01*
X8249832Y743024D01*
X8238713Y769867D01*
X8222571Y794026D01*
X8202026Y814571D01*
X8177867Y830713D01*
X8151024Y841832D01*
X8122528Y847500D01*
D02*
G37*
%LPD*%
D10*
X12369000Y2607000D02*
D03*
Y2777000D02*
D03*
Y2947000D02*
D03*
Y3117000D02*
D03*
Y3287000D02*
D03*
D11*
X11301500Y2947000D02*
D03*
D12*
Y3000500D01*
X11601000Y3300000D01*
X11800000D01*
X12148000Y2777000D02*
X12369000D01*
X11708000Y4100000D02*
X12000000Y3808000D01*
Y2925000D02*
Y3808000D01*
Y2925000D02*
X12148000Y2777000D01*
X12369000D02*
X12877000D01*
X13000000Y2900000D01*
X6584000Y284800D02*
Y700000D01*
X6459200Y160000D02*
X6584000Y284800D01*
X1170295Y160000D02*
X6459200D01*
X1773000Y6200000D02*
X1803000Y6170000D01*
Y6147200D02*
X1950000Y6000200D01*
X1803000Y6147200D02*
Y6170000D01*
X1950000Y2450000D02*
Y6000200D01*
X1003000Y6134400D02*
Y6170000D01*
X1600000Y2600000D02*
Y5537400D01*
X973000Y6200000D02*
X1003000Y6170000D01*
Y6134400D02*
X1600000Y5537400D01*
X736600Y3581400D02*
X857553Y3702353D01*
X736600Y963400D02*
Y3581400D01*
X857553Y3702353D02*
X984553D01*
X990600Y3708400D01*
X736600Y963400D02*
X1380000Y320000D01*
X508000Y3678000D02*
X792400Y3962400D01*
X508000Y822295D02*
X1170295Y160000D01*
X508000Y822295D02*
Y3678000D01*
X6223000Y431800D02*
Y889000D01*
X1380000Y320000D02*
X6111200D01*
X6223000Y431800D01*
X6334000Y1000000D02*
X6975600D01*
X6223000Y889000D02*
X6334000Y1000000D01*
X7087578Y704422D02*
X7092000Y700000D01*
X6975600Y1000000D02*
X7087578Y888022D01*
Y704422D02*
Y888022D01*
X11480800Y5708579D02*
Y6451600D01*
X11422221Y5650000D02*
X11480800Y5708579D01*
X11554200Y6525000D02*
X12175000D01*
X11480800Y6451600D02*
X11554200Y6525000D01*
X3530600Y3708400D02*
X4729421D01*
X4788000Y3649821D01*
Y1700000D02*
Y3649821D01*
X9525000Y5425000D02*
X9550000Y5400000D01*
X7075600Y4724400D02*
X7358000Y4442000D01*
X3530600Y4724400D02*
X7075600D01*
X7358000Y1900000D02*
Y4442000D01*
X10200000Y5650000D02*
X11422221D01*
X10200000Y6160000D02*
Y6575000D01*
X10025000Y6750000D02*
X10200000Y6575000D01*
X4300000Y6750000D02*
X10025000D01*
X4173000Y6623000D02*
X4300000Y6750000D01*
X4173000Y6200000D02*
Y6623000D01*
X5510000Y5140000D02*
X9180000D01*
X5227000Y5423000D02*
X5510000Y5140000D01*
X5227000Y5423000D02*
Y6200000D01*
X9180000Y5140000D02*
X9180000Y5140000D01*
X5042000Y1700000D02*
Y4258000D01*
X4829600Y4470400D02*
X5042000Y4258000D01*
X3530600Y4470400D02*
X4829600D01*
X3150000Y6650000D02*
X3373000Y6427000D01*
Y6200000D02*
Y6427000D01*
X950000Y6650000D02*
X3150000D01*
X1195880Y2195880D02*
X1600000Y2600000D01*
X990600Y2184400D02*
X1002080Y2195880D01*
X1195880D01*
X2573000Y2573000D02*
Y6200000D01*
X990600Y1676400D02*
X1676400D01*
X2573000Y2573000D01*
X990600Y1930400D02*
X1430400D01*
X1002080Y2703880D02*
X1053880D01*
X990600Y2692400D02*
X1002080Y2703880D01*
X1430400Y1930400D02*
X1950000Y2450000D01*
X1053880Y2703880D02*
X1300000Y2950000D01*
Y4900000D01*
X736600Y5463400D02*
X1300000Y4900000D01*
X736600Y5463400D02*
Y6436600D01*
X950000Y6650000D01*
X792400Y3962400D02*
X990600D01*
X2870000Y2490000D02*
X3060920Y2680920D01*
X3519120D01*
X2870000Y760000D02*
Y2490000D01*
Y760000D02*
X3150000Y480000D01*
X4464000D01*
X4684000Y700000D01*
X3519120Y2680920D02*
X3530600Y2692400D01*
X3276600Y2438400D02*
X3530600D01*
X3149600Y2311400D02*
X3276600Y2438400D01*
X3149600Y889000D02*
Y2311400D01*
Y889000D02*
X3338600Y700000D01*
X4176000D01*
X2950000Y4600000D02*
Y5450000D01*
D13*
X12369000Y2947000D02*
X12572000D01*
X12375000Y3293000D02*
Y3425000D01*
X12369000Y3287000D02*
X12375000Y3293000D01*
X12572000Y2947000D02*
X12575000Y2950000D01*
D14*
X10334154Y4749800D02*
X10718800D01*
X10224354Y4640000D02*
X10334154Y4749800D01*
X10200000Y4640000D02*
X10224354D01*
D15*
X10718800Y4899800D02*
D03*
D16*
Y4749800D02*
D03*
Y4599800D02*
D03*
D17*
X6850000Y1900000D02*
D03*
X5550000Y1700000D02*
D03*
X11708000Y4100000D02*
D03*
D18*
X7104000Y1900000D02*
D03*
X7358000D02*
D03*
X7612000D02*
D03*
X7866000D02*
D03*
X8120000D02*
D03*
X4280000Y1700000D02*
D03*
X4534000D02*
D03*
X4788000D02*
D03*
X5042000D02*
D03*
X5296000D02*
D03*
X1227000Y6200000D02*
D03*
X2027000D02*
D03*
X2827000D02*
D03*
X3627000D02*
D03*
X4427000D02*
D03*
X5227000D02*
D03*
X10500000Y3950000D02*
D03*
X11300000Y5150000D02*
D03*
X11750000Y1850000D02*
D03*
X11200000Y4100000D02*
D03*
X3530600Y1422400D02*
D03*
Y1676400D02*
D03*
Y1930400D02*
D03*
Y2184400D02*
D03*
Y2438400D02*
D03*
Y2692400D02*
D03*
Y2946400D02*
D03*
Y3200400D02*
D03*
Y3454400D02*
D03*
Y3708400D02*
D03*
Y3962400D02*
D03*
Y4216400D02*
D03*
Y4470400D02*
D03*
Y4724400D02*
D03*
X990600Y1168400D02*
D03*
Y1422400D02*
D03*
Y1676400D02*
D03*
Y1930400D02*
D03*
Y2184400D02*
D03*
Y2438400D02*
D03*
Y2692400D02*
D03*
Y2946400D02*
D03*
Y3200400D02*
D03*
Y3454400D02*
D03*
Y3708400D02*
D03*
Y3962400D02*
D03*
Y4216400D02*
D03*
Y4470400D02*
D03*
Y4724400D02*
D03*
D19*
X10412700Y711200D02*
D03*
X9000000Y700000D02*
D03*
X6584000D02*
D03*
X4176000D02*
D03*
D20*
X10920700Y711200D02*
D03*
X9508000Y700000D02*
D03*
X7092000D02*
D03*
X7600000D02*
D03*
X8108000D02*
D03*
X4684000D02*
D03*
X5192000D02*
D03*
X5700000D02*
D03*
D21*
X11900000Y1000000D02*
D03*
D22*
X12370000Y700000D02*
D03*
X11900000Y400000D02*
D03*
D23*
X10300000Y3120000D02*
D03*
X9100000D02*
D03*
X10300000Y1900000D02*
D03*
X9100000D02*
D03*
D24*
X9700000Y3320000D02*
D03*
D25*
X973000Y6200000D02*
D03*
X1773000D02*
D03*
X2573000D02*
D03*
X3373000D02*
D03*
X4173000D02*
D03*
X4973000D02*
D03*
X9090000Y3950000D02*
D03*
X11650000Y5150000D02*
D03*
X11250000Y1850000D02*
D03*
X3530600Y1168400D02*
D03*
D26*
X10200000Y5650000D02*
D03*
X9180000D02*
D03*
Y5140000D02*
D03*
X10200000D02*
D03*
X9180000Y4640000D02*
D03*
X10200000D02*
D03*
Y6160000D02*
D03*
X9180000D02*
D03*
X12875000Y4815000D02*
D03*
Y5835000D02*
D03*
D27*
X13000000Y6600000D02*
D03*
X400000Y400000D02*
D03*
X13000000D02*
D03*
X400000Y6600000D02*
D03*
D28*
X10925000Y6525000D02*
D03*
Y6025000D02*
D03*
X12175000Y6525000D02*
D03*
D29*
Y6025000D02*
D03*
D30*
X12250000Y5400000D02*
D03*
Y4892000D02*
D03*
X12400000Y1650000D02*
D03*
Y2158000D02*
D03*
D31*
X12375000Y4479000D02*
D03*
Y4225000D02*
D03*
Y3971000D02*
D03*
D32*
X13000000Y2900000D02*
D03*
D33*
Y1100000D02*
D03*
D34*
X11700000Y3300000D02*
D03*
X11800000D02*
D03*
X12375000Y3425000D02*
D03*
X12575000Y2950000D02*
D03*
X2950000Y4600000D02*
D03*
Y5450000D02*
D03*
%TF.MD5,95efc9831f18bdd1c312e9735053e64d*%
M02*
