M48
;Layer_Color=9474304
;FILE_FORMAT=4:4
METRIC,LZ
;TYPE=PLATED
T1F00S00C0.3000
T2F00S00C0.7000
T3F00S00C0.7400
T4F00S00C0.8000
T5F00S00C1.0000
T6F00S00C1.0500
T7F00S00C1.1000
T8F00S00C1.2000
T9F00S00C1.3400
T10F00S00C1.7000
T11F00S00C3.1600
T12F00S00C3.6400
%
T01
X0117Y0033
X0118
X012375Y003425
X012575Y00295
X00295Y0046
Y00545
T02
X0107188Y0045998
Y0047498
Y0048998
T03
X012375Y003971
Y004225
Y004479
T04
X0103Y0019
Y00312
X0124Y002158
Y00165
X01225Y004892
Y0054
X0091Y00312
Y0019
T05
X0102Y00464
Y00514
X012875Y004815
X00918Y00464
Y00514
Y00565
Y00616
X0102
Y00565
X012875Y005835
T06
X0105Y00395
X00909
T07
X0009906Y0011684
Y0014224
X0035306
Y0011684
X01125Y00185
X01175
X011708Y0041
X0112
X0113Y00515
X01165
X00812Y0019
X007866
X007612
X007358
X007104
X00685
X00555Y0017
X005296
X005042
X004788
X004534
X00428
X0035306Y0016764
Y0019304
Y0021844
Y0024384
Y0026924
Y0029464
Y0032004
Y0034544
Y0037084
Y0039624
Y0042164
Y0044704
Y0047244
X0009906
Y0044704
Y0042164
Y0039624
Y0037084
Y0034544
Y0032004
Y0029464
Y0026924
Y0024384
Y0021844
Y0019304
Y0016764
X000973Y0062
X001227
X001773
X002027
X002573
X002827
X003373
X003627
X004173
X004427
X004973
X005227
T08
X010925Y006025
Y006525
X012175
Y006025
T09
X0097Y00332
T10
X004176Y0007
X004684
X005192
X0057
X006584
X007092
X0076
X008108
X009
X009508
X0104127Y0007112
X0109207
X013Y0011
Y0029
T11
X0119Y0004
X01237Y0007
T12
X0119Y001
M30
